PathFileType	4	(X/Y/Z)	T1_P1_Vision_Movement_3_0-659.trc
DataRate	CameraRate	NumFrames	NumMarkers	Units	OrigDataRate	OrigDataStartFrame	OrigNumFrames
60	60	4	27	m	60	164	659
Frame#	Time	RHip			RKnee			RAnkle			RBigToe			RSmallToe			RHeel			LHip			LKnee			LAnkle			LBigToe			LSmallToe			LHeel			Neck			Head			Nose			RShoulder			RElbow			RWrist			RThumb			RIndex			RPinky			LShoulder			LElbow			LWrist			LThumb			LIndex			LPinky		
		X1	Y1	Z1	X2	Y2	Z2	X3	Y3	Z3	X4	Y4	Z4	X5	Y5	Z5	X6	Y6	Z6	X7	Y7	Z7	X8	Y8	Z8	X9	Y9	Z9	X10	Y10	Z10	X11	Y11	Z11	X12	Y12	Z12	X13	Y13	Z13	X14	Y14	Z14	X15	Y15	Z15	X16	Y16	Z16	X17	Y17	Z17	X18	Y18	Z18	X19	Y19	Z19	X20	Y20	Z20	X21	Y21	Z21	X22	Y22	Z22	X23	Y23	Z23	X24	Y24	Z24	X25	Y25	Z25	X26	Y26	Z26	X27	Y27	Z27
165	2.75	-95.24223623794013	3880.876280932587	-631.7295183249936	249.40702360810465	3994.4033260419233	-630.3259111879763	609.0916992179428	4268.2140744686785	-686.2576647363545	686.8207355915899	4176.658861579218	-644.6146739166188	676.6754114220385	4139.253950369543	-684.362849454841	643.654051748736	4316.3195281516155	-696.4714323600477	-119.1440403357325	4052.6234295900167	-507.6408813423999	215.5083343556409	4162.998262800903	-496.3571472875409	573.4927239735813	4337.781370142007	-506.3301279309629	642.5559382440803	4218.7410397351605	-402.2259888188147	621.2413982078606	4269.782531774952	-379.6507917817044	628.2854017150452	4384.517046431578	-535.4935068424194	-696.9262392048457	3791.744923655664	-583.8673042921364	-931.7106689832598	3605.23451770004	-472.08080954072636	-788.2749158154938	3642.146153332673	-449.86340534094234	-587.4195834648658	3748.112684989157	-711.1676223490336	-327.0568483613391	3633.1920306093702	-689.6593730169412	-526.1515048433005	3548.6235891922383	-537.6827145753613	-599.5635353627879	3488.899495326651	-454.7484975881687	-604.3545547115365	3475.656215792118	-429.6572979741526	-557.2175058934412	3470.4962846850717	-434.986740044671	-631.5332526578178	3910.3550753660897	-488.9401273477871	-404.4161939982817	4142.22284424933	-468.4943482601165	-152.3841189191942	4099.597662170232	-367.9466788081395	-21.070725625731303	4118.169409969012	-374.42048916150037	16.416536708588957	4167.324598027996	-375.17121425635645	-15.598457689376257	4156.110726287138	-336.4222101629142
166	2.7666666666666666	-92.64664244656075	3884.4774768435436	-633.6265828443313	250.84226592132242	3994.192545595577	-630.1274903659778	607.7656334853193	4267.712964153323	-685.999411597837	687.07243676044	4181.4684128444915	-645.659308650604	676.2778176886163	4139.2751550610865	-684.3389656422353	643.2263285647433	4315.91630099153	-696.4299948646884	-118.05026807296804	4052.969003832396	-506.5460105586493	215.3589409455666	4163.011056902035	-495.742123454784	573.0852051306185	4337.544521709285	-506.2013077062154	643.7141729518469	4219.820697480631	-402.83150422100545	622.2883284080591	4277.070560676921	-380.92924831761377	628.1131427939285	4384.030423681725	-535.4043890196865	-695.0694185588195	3792.0441687928583	-583.7148877000147	-931.5049641129821	3603.9204842088857	-470.32694609083603	-788.8971250359424	3641.6871807033544	-449.9096744007221	-588.2545636285504	3754.8902957404102	-713.5670582798464	-327.18651673329236	3633.293232157314	-689.7730738763635	-527.104811450647	3551.5163289154916	-537.3704791667212	-600.1438037014144	3493.7900587201207	-455.36524375163873	-604.7829480175599	3475.669945401766	-429.78383767640446	-555.9943352373209	3467.524524918984	-431.9003316811826	-632.626813950775	3917.5319066531138	-489.1476083592874	-403.54808462048936	4142.27601963236	-468.4244188375692	-150.2604196343382	4100.747201849455	-368.0093657175744	-21.153724920680713	4119.533177440893	-374.8137930033638	18.04503540859875	4168.878144621516	-375.781276020286	-15.384366821207994	4156.433125482781	-337.3743308141401
167	2.783333333333333	-91.32609961799261	3891.2641432492924	-636.376127085702	251.3830384496764	3994.2277840418283	-630.0780854893235	605.4127798568136	4267.004550455294	-685.7420825177185	686.2884317581905	4183.011847697346	-645.7858957716188	675.4211440440607	4139.046663260874	-684.2646111558734	643.8943105915067	4316.349822830575	-696.4842747157011	-117.17176055854996	4053.2412365113573	-505.03371006690014	215.19626629599162	4162.977160180674	-494.2503474633266	573.0100615438705	4337.882688450874	-507.08118263125084	644.3027770126425	4219.58885779899	-402.7004886232164	622.9730536419777	4281.8222013057075	-381.7742454007249	627.2256079649176	4383.5378294590355	-535.5416163159681	-693.3657629354221	3792.357745642316	-583.5174709788263	-932.5098102296902	3607.9832390795464	-469.46995712071305	-788.7264686281744	3641.1830867840367	-449.6333180385143	-588.2187759885469	3757.9060332785857	-713.8822337493534	-327.8307351840364	3633.1861455068965	-689.9892387815839	-528.9161695666186	3556.9170552031164	-538.7491667190869	-600.1939997479465	3493.313832488975	-453.6852052332514	-605.774188368411	3478.197576725067	-431.1810311647736	-555.0256144513914	3466.8825170138093	-431.37859666827114	-634.0974088238543	3926.9855034246984	-489.7959412993399	-403.11326140990536	4142.548645054005	-468.5508868704895	-148.04580075247787	4101.991922272502	-368.15373020850524	-21.779484591486664	4119.38431049943	-374.91446059883134	18.27953861641366	4169.338334468392	-375.97965641258463	-15.18387257002432	4156.925221979372	-338.57263771735586
168	2.8	-91.40463607982734	3893.07085824508	-636.9710679014983	251.336445944059	3994.4323277750036	-630.1222168396447	604.2153499520723	4266.750610101949	-685.7400301426261	684.9933645883661	4179.496689105032	-644.7768353193147	674.6358179817132	4139.012126806034	-684.3951730917105	644.8364465733579	4317.156468811858	-696.50574957041	-116.62794410073894	4053.576275892261	-505.1933452229422	215.60053983058796	4163.029769763874	-492.9688980772288	573.3925318082318	4338.100886556455	-507.5904214863026	643.9961657537701	4216.926215618494	-401.17838521102453	622.8348839792385	4280.632424264535	-381.5269099829451	626.5984995893011	4383.358844733628	-535.7026410954228	-692.2374938812628	3793.272499722329	-583.5444243961489	-933.9526861616808	3615.7305017175586	-469.74091975530666	-788.1213856659731	3640.6902565761493	-448.68281144460695	-587.5821037748486	3758.443130467839	-712.9843648132913	-329.06295282556863	3630.1024242116496	-689.2092034939915	-531.6845457315859	3563.521803682428	-540.8092179937654	-601.1603433656215	3490.5486207820295	-450.8088009197504	-608.3235163169561	3484.629944415516	-433.29950441172656	-554.2745501239418	3467.706068779467	-431.8540695848793	-635.2314936044196	3934.1736253734834	-490.7285400319171	-403.5071705765149	4142.069134286758	-468.27793842933465	-147.60884579166824	4102.421416068951	-368.3456317798792	-22.901432863498506	4117.07687459412	-374.70323588985747	17.522647859762806	4168.979518489031	-375.90980009320276	-14.877969395970503	4157.600772436331	-339.85498244299725
